<?xml version="1.0"?>
<svg version="1.1" xmlns="http://www.w3.org/2000/svg" xmlns:xlink="http://www.w3.org/1999/xlink" width="3700" height="800">
    <desc iVinci="yes" version="4.6" gridStep="20" showGrid="no" snapToGrid="no" codePlatform="0"/>
    <g id="Layer1" name="Layer 1" opacity="1">
        <g id="Shape1">
            <desc shapeID="1" type="2" basicInfo-basicType="0" basicInfo-roundedRectRadius="12" basicInfo-polygonSides="6" basicInfo-starPoints="5" bounding="rect(-1689.25,-242.015,3378.5,484.029)" text="Augmentaio" font-familyName="a•space" font-pixelSize="381" font-bold="0" font-underline="0" font-alignment="0" strokeStyle="0" markerStart="0" markerEnd="0" shadowEnabled="0" shadowOffsetX="0" shadowOffsetY="2" shadowBlur="4" shadowOpacity="160" blurEnabled="0" blurRadius="4" transform="matrix(1,0,0,1,2352.21,392.842)" pers-center="0,0" pers-size="0,0" pers-start="0,0" pers-end="0,0" locked="0" mesh="" flag=""/>
            <path id="shapePath1" d="M903.689,260.884 C926.262,260.884 945.547,268.883 961.546,284.882 C977.669,300.881 985.731,320.229 985.731,342.925 L985.731,524.123 L956.151,524.123 L956.151,402.828 L716.724,402.828 L716.724,524.123 L687.145,524.123 L687.145,342.925 C687.145,320.229 695.144,300.881 711.143,284.882 C727.142,268.883 746.49,260.884 769.186,260.884 L903.689,260.884 M956.151,373.249 L956.151,342.925 C956.151,328.414 951.004,316.012 940.71,305.718 C930.417,295.424 918.076,290.277 903.689,290.277 L769.186,290.277 C754.675,290.277 742.273,295.424 731.979,305.718 C721.809,316.012 716.724,328.414 716.724,342.925 L716.724,373.249 L956.151,373.249 M1274.08,342.739 L1303.48,342.739 L1303.48,461.988 C1303.48,479.103 1297.4,493.738 1285.25,505.892 C1273.09,518.046 1258.46,524.123 1241.34,524.123 L1096.23,524.123 C1079.12,524.123 1064.48,518.046 1052.33,505.892 C1040.17,493.738 1034.1,479.103 1034.1,461.988 L1034.1,342.739 L1063.68,342.739 L1063.68,461.988 C1063.68,471.041 1066.84,478.731 1073.17,485.056 C1079.61,491.505 1087.3,494.73 1096.23,494.73 L1241.34,494.73 C1250.39,494.73 1258.08,491.505 1264.41,485.056 C1270.86,478.731 1274.08,471.041 1274.08,461.988 L1274.08,342.739 M1546.42,342.553 C1567.01,342.553 1584.62,349.87 1599.26,364.505 C1613.89,379.016 1621.21,396.565 1621.21,417.153 L1621.21,543.099 C1621.21,560.462 1615.07,575.283 1602.79,587.561 C1590.52,599.716 1575.76,605.793 1558.52,605.793 L1366.53,605.793 L1366.53,576.399 L1558.52,576.399 C1567.57,576.399 1575.38,573.113 1581.96,566.539 C1588.41,560.09 1591.63,552.277 1591.63,543.099 L1591.63,508.682 C1578.24,518.852 1563.17,523.937 1546.42,523.937 L1414.53,523.937 C1397.29,523.937 1382.53,517.798 1370.25,505.52 C1357.97,493.365 1351.83,478.607 1351.83,461.243 L1351.83,405.247 C1351.83,388.008 1357.97,373.249 1370.25,360.97 C1382.53,348.692 1397.29,342.553 1414.53,342.553 L1546.42,342.553 M1546.42,494.544 C1558.95,494.544 1569.62,490.079 1578.42,481.149 C1587.23,472.343 1591.63,461.739 1591.63,449.337 L1591.63,417.153 C1591.63,404.751 1587.23,394.147 1578.42,385.341 C1569.62,376.535 1558.95,372.133 1546.42,372.133 L1414.53,372.133 C1405.35,372.133 1397.53,375.357 1391.09,381.806 C1384.51,388.256 1381.23,396.069 1381.23,405.247 L1381.23,461.243 C1381.23,470.421 1384.51,478.235 1391.09,484.684 C1397.53,491.257 1405.35,494.544 1414.53,494.544 L1546.42,494.544 M2015.22,342.739 C2032.46,342.739 2047.22,348.816 2059.5,360.97 C2071.77,373.249 2077.91,388.07 2077.91,405.433 L2077.91,524.123 L2048.33,524.123 L2048.33,405.433 C2048.33,396.255 2045.11,388.442 2038.66,381.992 C2032.21,375.419 2024.4,372.133 2015.22,372.133 L1921.64,372.133 C1912.47,372.133 1904.65,375.357 1898.2,381.806 C1891.75,388.38 1888.53,396.193 1888.53,405.247 L1888.53,524.123 L1858.95,524.123 L1858.95,405.433 C1858.95,396.255 1855.73,388.38 1849.28,381.806 C1842.83,375.357 1835.01,372.133 1825.84,372.133 L1744.17,372.133 C1731.76,372.133 1721.16,376.535 1712.35,385.341 C1703.55,394.147 1699.15,404.813 1699.15,417.339 L1699.15,524.123 L1669.57,524.123 L1669.57,413.618 L1669.75,413.618 C1670.62,393.775 1678.25,377.031 1692.63,363.389 C1707.15,349.622 1724.32,342.739 1744.17,342.739 L1825.84,342.739 C1845.18,342.739 1861.12,350.18 1873.65,365.063 C1886.3,350.18 1902.3,342.739 1921.64,342.739 L2015.22,342.739 M2320.86,342.739 C2341.45,342.739 2359.06,350.056 2373.7,364.691 C2388.33,379.202 2395.65,396.751 2395.65,417.339 L2395.65,441.896 L2155.66,441.896 L2155.66,461.429 C2155.66,470.607 2158.95,478.421 2165.52,484.87 C2171.97,491.443 2179.79,494.73 2188.96,494.73 L2395.46,494.73 L2395.46,524.123 L2188.96,524.123 C2171.6,524.123 2156.78,517.984 2144.5,505.706 C2132.35,493.551 2126.27,478.793 2126.27,461.429 L2126.27,405.433 C2126.27,388.194 2132.35,373.435 2144.5,361.156 C2156.78,348.878 2171.6,342.739 2188.96,342.739 L2320.86,342.739 M2365.7,412.316 C2364.46,401.03 2359.56,391.542 2351,383.853 C2342.44,376.163 2332.4,372.319 2320.86,372.319 L2188.96,372.319 C2179.79,372.319 2171.97,375.543 2165.52,381.992 C2158.95,388.442 2155.66,396.255 2155.66,405.433 L2155.66,412.316 L2365.7,412.316 M2650.69,342.739 C2667.93,342.739 2682.69,348.878 2694.97,361.156 C2707.24,373.435 2713.38,388.194 2713.38,405.433 L2713.38,524.123 L2683.8,524.123 L2683.8,405.433 C2683.8,396.255 2680.58,388.442 2674.13,381.992 C2667.68,375.543 2659.87,372.319 2650.69,372.319 L2518.79,372.319 C2506.26,372.319 2495.6,376.721 2486.79,385.527 C2477.99,394.333 2473.58,404.937 2473.58,417.339 L2473.58,524.123 L2444,524.123 L2444,412.874 L2444.19,412.874 C2445.31,393.279 2453.06,376.721 2467.44,363.203 C2481.83,349.56 2498.95,342.739 2518.79,342.739 L2650.69,342.739 M2823.32,342.739 L2887.5,342.739 L2887.5,372.319 L2823.32,372.319 L2823.32,461.429 C2823.32,470.607 2826.54,478.421 2832.99,484.87 C2839.56,491.443 2847.38,494.73 2856.43,494.73 L2887.5,494.73 L2887.5,524.123 L2856.43,524.123 C2839.19,524.123 2824.43,517.984 2812.15,505.706 C2799.88,493.551 2793.74,478.793 2793.74,461.429 L2793.74,372.319 L2761.74,372.319 L2761.74,342.739 L2793.74,342.739 L2793.74,260.884 L2823.32,260.884 L2823.32,342.739 M2992.98,494.73 C2985.04,494.73 2978.28,493.427 2972.7,490.823 C2964.14,486.73 2959.86,479.909 2959.86,470.359 L2959.86,467.755 C2959.86,458.205 2964.14,451.384 2972.7,447.291 C2978.16,444.686 2984.91,443.384 2992.98,443.384 L3136.97,443.384 C3144.9,443.384 3151.66,444.686 3157.25,447.291 C3165.8,451.384 3170.08,458.143 3170.08,467.569 C3170.08,485.676 3159.04,494.73 3136.97,494.73 L2992.98,494.73 M3199.66,402.642 C3199.66,386.395 3193.46,372.381 3181.06,360.598 C3168.66,348.692 3153.96,342.739 3136.97,342.739 L2950.93,342.739 L2950.93,372.319 L3136.97,372.319 C3146.02,372.319 3153.9,375.605 3160.59,382.178 C3166.92,388.256 3170.08,395.077 3170.08,402.642 L3170.08,420.874 C3160.41,416.161 3149.37,413.804 3136.97,413.804 L2992.98,413.804 C2974.25,413.804 2959.12,418.765 2947.58,428.687 C2936.05,438.609 2930.28,451.632 2930.28,467.755 L2930.28,470.359 C2930.28,486.482 2936.05,499.505 2947.58,509.426 C2959.12,519.224 2974.25,524.123 2992.98,524.123 L3136.97,524.123 C3155.94,524.123 3171.14,519.038 3182.55,508.868 C3193.83,498.574 3199.54,484.87 3199.66,467.755 L3199.66,402.642 M3244.3,342.739 L3273.88,342.739 L3273.88,524.123 L3244.3,524.123 L3244.3,342.739 M3244.3,260.697 L3274.07,260.697 L3274.07,290.463 L3244.3,290.463 L3244.3,260.697 M3531.53,342.739 C3548.64,342.739 3563.28,348.816 3575.43,360.97 C3587.59,373.125 3593.66,387.759 3593.66,404.875 L3593.66,461.988 C3593.66,479.103 3587.59,493.738 3575.43,505.892 C3563.28,518.046 3548.64,524.123 3531.53,524.123 L3386.42,524.123 C3369.31,524.123 3354.67,518.046 3342.52,505.892 C3330.36,493.738 3324.29,479.103 3324.29,461.988 L3324.29,404.875 C3324.29,387.759 3330.36,373.125 3342.52,360.97 C3354.67,348.816 3369.31,342.739 3386.42,342.739 L3531.53,342.739 M3564.08,404.875 C3564.08,395.821 3560.92,388.132 3554.6,381.806 C3548.15,375.481 3540.46,372.319 3531.53,372.319 L3386.42,372.319 C3377.37,372.319 3369.68,375.481 3363.35,381.806 C3356.9,388.132 3353.68,395.821 3353.68,404.875 L3353.68,461.988 C3353.68,471.041 3356.9,478.731 3363.35,485.056 C3369.68,491.505 3377.37,494.73 3386.42,494.73 L3531.53,494.73 C3540.46,494.73 3548.15,491.505 3554.6,485.056 C3560.92,478.731 3564.08,471.041 3564.08,461.988 L3564.08,404.875 Z" style="stroke:none;fill-rule:nonzero;fill:#6f6f6f;fill-opacity:1;"/>
        </g>
    </g>
    <g id="Layer2" name="Layer 3" visibility="hidden" opacity="1">
        <g id="Shape2">
            <desc shapeID="2" type="0" basicInfo-basicType="1" basicInfo-roundedRectRadius="12" basicInfo-polygonSides="6" basicInfo-starPoints="5" bounding="rect(-88.4118,-78.8018,176.825,157.605)" text="" font-familyName="Helvetica" font-pixelSize="20" font-bold="0" font-underline="0" font-alignment="1" strokeStyle="0" markerStart="0" markerEnd="0" shadowEnabled="0" shadowOffsetX="0" shadowOffsetY="2" shadowBlur="4" shadowOpacity="160" blurEnabled="0" blurRadius="4" transform="matrix(0.855072,0,0,0.886179,104.429,221.67)" pers-center="0,0" pers-size="0,0" pers-start="0,0" pers-end="0,0" locked="0" mesh="" flag=""/>
            <path id="shapePath2" d="M28.8301,151.838 L180.028,151.838 L180.028,291.504 L28.8301,291.504 L28.8301,151.838 Z" style="stroke:none;fill-rule:evenodd;fill:#99cef1;fill-opacity:1;"/>
        </g>
    </g>
    <g id="Layer3" name="Iris" opacity="1">
        <g id="Shape3">
            <desc shapeID="3" type="0" basicInfo-basicType="0" basicInfo-roundedRectRadius="12" basicInfo-polygonSides="6" basicInfo-starPoints="5" bounding="rect(0,0,0,0)" text="" font-familyName="" font-pixelSize="20" font-bold="0" font-underline="0" font-alignment="1" strokeStyle="0" markerStart="0" markerEnd="0" shadowEnabled="0" shadowOffsetX="0" shadowOffsetY="2" shadowBlur="4" shadowOpacity="160" blurEnabled="0" blurRadius="4" transform="matrix(0.4425,0,0,0.442501,1.48864e-05,86.2625)" pers-center="0,0" pers-size="0,0" pers-start="0,0" pers-end="0,0" locked="0" mesh="" flag="Trace_1"/>
            <path id="shapePath3" d="M1.48864e-05,86.2625 Z" style="stroke:none;fill-rule:evenodd;fill:#6f6f6f;fill-opacity:1;"/>
        </g>
        <g id="Shape4">
            <desc shapeID="4" type="0" basicInfo-basicType="0" basicInfo-roundedRectRadius="12" basicInfo-polygonSides="6" basicInfo-starPoints="5" bounding="rect(-45.3887,-51.2565,90.7776,102.512)" text="" font-familyName="" font-pixelSize="20" font-bold="0" font-underline="0" font-alignment="1" strokeStyle="0" markerStart="0" markerEnd="0" shadowEnabled="0" shadowOffsetX="0" shadowOffsetY="2" shadowBlur="4" shadowOpacity="160" blurEnabled="0" blurRadius="4" transform="matrix(2.78341,0,0,2.62947,182.798,221.997)" pers-center="0,0" pers-size="0,0" pers-start="0,0" pers-end="0,0" locked="0" mesh="" flag="Trace_1"/>
            <path id="shapePath4" d="M56.4626,213.614 C108.111,136.722 204.139,88.3554 309.134,87.2192 L144.775,356.772 C144.775,356.772 56.4626,213.614 56.4626,213.614 Z" style="stroke:none;fill-rule:evenodd;fill:#6f6f6f;fill-opacity:1;"/>
        </g>
        <g id="Shape5">
            <desc shapeID="5" type="0" basicInfo-basicType="0" basicInfo-roundedRectRadius="12" basicInfo-polygonSides="6" basicInfo-starPoints="5" bounding="rect(-58.6791,-27.8067,117.356,55.6133)" text="" font-familyName="" font-pixelSize="20" font-bold="0" font-underline="0" font-alignment="1" strokeStyle="0" markerStart="0" markerEnd="0" shadowEnabled="0" shadowOffsetX="0" shadowOffsetY="2" shadowBlur="4" shadowOpacity="160" blurEnabled="0" blurRadius="4" transform="matrix(2.78341,0,0,2.62947,419.379,160.295)" pers-center="0,0" pers-size="0,0" pers-start="0,0" pers-end="0,0" locked="0" mesh="" flag="Trace_1"/>
            <path id="shapePath5" d="M256.051,228.973 L341.994,87.1781 C441.973,89.3635 545.668,152.092 582.702,233.412 C582.702,233.412 256.051,228.973 256.051,228.973 Z" style="stroke:none;fill-rule:evenodd;fill:#6f6f6f;fill-opacity:1;"/>
        </g>
        <g id="Shape6">
            <desc shapeID="6" type="0" basicInfo-basicType="0" basicInfo-roundedRectRadius="12" basicInfo-polygonSides="6" basicInfo-starPoints="5" bounding="rect(-36.557,-51.3114,73.114,102.623)" text="" font-familyName="" font-pixelSize="20" font-bold="0" font-underline="0" font-alignment="1" strokeStyle="0" markerStart="0" markerEnd="0" shadowEnabled="0" shadowOffsetX="0" shadowOffsetY="2" shadowBlur="4" shadowOpacity="160" blurEnabled="0" blurRadius="4" transform="matrix(2.78341,0,0,2.62947,104.02,373.783)" pers-center="0,0" pers-size="0,0" pers-start="0,0" pers-end="0,0" locked="0" mesh="" flag="Trace_1"/>
            <path id="shapePath6" d="M39.8625,238.861 L205.773,508.705 C205.773,508.456 34.8033,508.705 34.8033,508.456 C-12.6584,425.013 -5.80572,321.577 39.8625,238.861 Z" style="stroke:none;fill-rule:evenodd;fill:#6f6f6f;fill-opacity:1;"/>
        </g>
        <g id="Shape7">
            <desc shapeID="7" type="0" basicInfo-basicType="0" basicInfo-roundedRectRadius="12" basicInfo-polygonSides="6" basicInfo-starPoints="5" bounding="rect(-36.1609,-51.0599,72.3217,102.118)" text="" font-familyName="" font-pixelSize="20" font-bold="0" font-underline="0" font-alignment="1" strokeStyle="0" markerStart="0" markerEnd="0" shadowEnabled="0" shadowOffsetX="0" shadowOffsetY="2" shadowBlur="4" shadowOpacity="160" blurEnabled="0" blurRadius="4" transform="matrix(2.78341,0,0,2.62947,521.227,389.926)" pers-center="0,0" pers-size="0,0" pers-start="0,0" pers-end="0,0" locked="0" mesh="" flag="Trace_1"/>
            <path id="shapePath7" d="M420.576,256.333 L592.816,255.665 C634.78,332.6 630.644,444.916 584.635,524.182 L420.576,256.333 Z" style="stroke:none;fill-rule:evenodd;fill:#6f6f6f;fill-opacity:1;"/>
        </g>
        <g id="Shape8">
            <desc shapeID="8" type="0" basicInfo-basicType="0" basicInfo-roundedRectRadius="12" basicInfo-polygonSides="6" basicInfo-starPoints="5" bounding="rect(-44.188,-51.2028,88.3758,102.404)" text="" font-familyName="" font-pixelSize="20" font-bold="0" font-underline="0" font-alignment="1" strokeStyle="0" markerStart="0" markerEnd="0" shadowEnabled="0" shadowOffsetX="0" shadowOffsetY="2" shadowBlur="4" shadowOpacity="160" blurEnabled="0" blurRadius="4" transform="matrix(2.78341,0,0,2.62947,446.688,538.634)" pers-center="0,0" pers-size="0,0" pers-start="0,0" pers-end="0,0" locked="0" mesh="" flag="Trace_1"/>
            <path id="shapePath8" d="M323.695,673.266 C323.695,673.266 478.242,403.998 478.242,403.998 L569.681,552.754 C511.994,623.985 421.518,673.266 323.695,673.266 Z" style="stroke:none;fill-rule:evenodd;fill:#6f6f6f;fill-opacity:1;"/>
        </g>
        <g id="Shape9">
            <desc shapeID="9" type="0" basicInfo-basicType="0" basicInfo-roundedRectRadius="12" basicInfo-polygonSides="6" basicInfo-starPoints="5" bounding="rect(-58.3549,-27.1217,116.711,54.2436)" text="" font-familyName="" font-pixelSize="20" font-bold="0" font-underline="0" font-alignment="1" strokeStyle="0" markerStart="0" markerEnd="0" shadowEnabled="0" shadowOffsetX="0" shadowOffsetY="2" shadowBlur="4" shadowOpacity="160" blurEnabled="0" blurRadius="4" transform="matrix(2.78341,0,0,2.62947,211.17,602.886)" pers-center="0,0" pers-size="0,0" pers-start="0,0" pers-end="0,0" locked="0" mesh="" flag="Trace_1"/>
            <path id="shapePath9" d="M48.7447,532.955 L373.599,531.57 C330.939,602.886 317.627,627.563 290.265,674.202 C173.02,665.302 89.4982,606.793 48.7447,532.955 Z" style="stroke:none;fill-rule:evenodd;fill:#6f6f6f;fill-opacity:1;"/>
        </g>
        <g id="Shape10">
            <desc shapeID="10" type="0" basicInfo-basicType="0" basicInfo-roundedRectRadius="12" basicInfo-polygonSides="6" basicInfo-starPoints="5" bounding="rect(0,0,0,0)" text="" font-familyName="" font-pixelSize="20" font-bold="0" font-underline="0" font-alignment="1" strokeStyle="0" markerStart="0" markerEnd="0" shadowEnabled="0" shadowOffsetX="0" shadowOffsetY="2" shadowBlur="4" shadowOpacity="160" blurEnabled="0" blurRadius="4" transform="matrix(0.4425,0,0,0.442501,1.48864e-05,86.2625)" pers-center="0,0" pers-size="0,0" pers-start="0,0" pers-end="0,0" locked="0" mesh="" flag="Trace_1"/>
            <path id="shapePath10" d="M1.48864e-05,86.2625 Z" style="stroke:none;fill-rule:evenodd;fill:#6f6f6f;fill-opacity:1;"/>
        </g>
        <g id="Shape11">
            <desc shapeID="11" type="0" basicInfo-basicType="0" basicInfo-roundedRectRadius="12" basicInfo-polygonSides="6" basicInfo-starPoints="5" bounding="rect(0,0,0,0)" text="" font-familyName="" font-pixelSize="20" font-bold="0" font-underline="0" font-alignment="1" strokeStyle="0" markerStart="0" markerEnd="0" shadowEnabled="0" shadowOffsetX="0" shadowOffsetY="2" shadowBlur="4" shadowOpacity="160" blurEnabled="0" blurRadius="4" transform="matrix(0.4425,0,0,0.442501,1.48864e-05,86.2625)" pers-center="0,0" pers-size="0,0" pers-start="0,0" pers-end="0,0" locked="0" mesh="" flag="Trace_1"/>
            <path id="shapePath11" d="M1.48864e-05,86.2625 Z" style="stroke:none;fill-rule:evenodd;fill:#6f6f6f;fill-opacity:1;"/>
        </g>
        <g id="Shape12">
            <desc shapeID="12" type="0" basicInfo-basicType="0" basicInfo-roundedRectRadius="12" basicInfo-polygonSides="6" basicInfo-starPoints="5" bounding="rect(0,0,0,0)" text="" font-familyName="" font-pixelSize="20" font-bold="0" font-underline="0" font-alignment="1" strokeStyle="0" markerStart="0" markerEnd="0" shadowEnabled="0" shadowOffsetX="0" shadowOffsetY="2" shadowBlur="4" shadowOpacity="160" blurEnabled="0" blurRadius="4" transform="matrix(0.4425,0,0,0.442501,1.48864e-05,86.2625)" pers-center="0,0" pers-size="0,0" pers-start="0,0" pers-end="0,0" locked="0" mesh="" flag="Trace_1"/>
            <path id="shapePath12" d="M1.48864e-05,86.2625 Z" style="stroke:none;fill-rule:evenodd;fill:#6f6f6f;fill-opacity:1;"/>
        </g>
        <g id="Shape13">
            <desc shapeID="13" type="0" basicInfo-basicType="0" basicInfo-roundedRectRadius="12" basicInfo-polygonSides="6" basicInfo-starPoints="5" bounding="rect(0,0,0,0)" text="" font-familyName="" font-pixelSize="20" font-bold="0" font-underline="0" font-alignment="1" strokeStyle="0" markerStart="0" markerEnd="0" shadowEnabled="0" shadowOffsetX="0" shadowOffsetY="2" shadowBlur="4" shadowOpacity="160" blurEnabled="0" blurRadius="4" transform="matrix(0.4425,0,0,0.442501,1.48864e-05,86.2625)" pers-center="0,0" pers-size="0,0" pers-start="0,0" pers-end="0,0" locked="0" mesh="" flag="Trace_1"/>
            <path id="shapePath13" d="M1.48864e-05,86.2625 Z" style="stroke:none;fill-rule:evenodd;fill:#6f6f6f;fill-opacity:1;"/>
        </g>
        <g id="Shape14">
            <desc shapeID="14" type="0" basicInfo-basicType="0" basicInfo-roundedRectRadius="12" basicInfo-polygonSides="6" basicInfo-starPoints="5" bounding="rect(0,0,0,0)" text="" font-familyName="" font-pixelSize="20" font-bold="0" font-underline="0" font-alignment="1" strokeStyle="0" markerStart="0" markerEnd="0" shadowEnabled="0" shadowOffsetX="0" shadowOffsetY="2" shadowBlur="4" shadowOpacity="160" blurEnabled="0" blurRadius="4" transform="matrix(0.4425,0,0,0.442501,1.48864e-05,86.2625)" pers-center="0,0" pers-size="0,0" pers-start="0,0" pers-end="0,0" locked="0" mesh="" flag="Trace_1"/>
            <path id="shapePath14" d="M1.48864e-05,86.2625 Z" style="stroke:none;fill-rule:evenodd;fill:#6f6f6f;fill-opacity:1;"/>
        </g>
        <g id="Shape15">
            <desc shapeID="15" type="0" basicInfo-basicType="0" basicInfo-roundedRectRadius="12" basicInfo-polygonSides="6" basicInfo-starPoints="5" bounding="rect(0,0,0,0)" text="" font-familyName="" font-pixelSize="20" font-bold="0" font-underline="0" font-alignment="1" strokeStyle="0" markerStart="0" markerEnd="0" shadowEnabled="0" shadowOffsetX="0" shadowOffsetY="2" shadowBlur="4" shadowOpacity="160" blurEnabled="0" blurRadius="4" transform="matrix(0.4425,0,0,0.442501,1.48864e-05,86.2625)" pers-center="0,0" pers-size="0,0" pers-start="0,0" pers-end="0,0" locked="0" mesh="" flag="Trace_1"/>
            <path id="shapePath15" d="M1.48864e-05,86.2625 Z" style="stroke:none;fill-rule:evenodd;fill:#6f6f6f;fill-opacity:1;"/>
        </g>
    </g>
    <g id="Layer4" name="Iris Logo 1" opacity="1">
        <g id="Shape16">
            <desc shapeID="16" type="0" basicInfo-basicType="4" basicInfo-roundedRectRadius="12" basicInfo-polygonSides="6" basicInfo-starPoints="5" bounding="rect(-30.2905,-30.2906,60.5815,60.5812)" text="" font-familyName="a•space" font-pixelSize="41" font-bold="0" font-underline="0" font-alignment="1" strokeStyle="0" markerStart="0" markerEnd="0" shadowEnabled="0" shadowOffsetX="0" shadowOffsetY="2" shadowBlur="4" shadowOpacity="160" blurEnabled="0" blurRadius="4" transform="matrix(3.75661,0,0,3.57885,312.541,376.886)" pers-center="0,0" pers-size="0,0" pers-start="0,0" pers-end="0,0" locked="0" mesh="" flag=""/>
            <path id="shapePath16" d="M198.751,376.883 C198.751,317.018 249.701,268.481 312.538,268.481 C375.389,268.481 426.332,317.018 426.332,376.883 C426.332,436.757 375.389,485.292 312.538,485.292 C249.701,485.292 198.751,436.757 198.751,376.883 Z" style="stroke:none;fill-rule:evenodd;fill:url(#radialGradientFill16);fill-opacity:1;"/><defs><radialGradient id="radialGradientFill16" gradientUnits="userSpaceOnUse" cx="319.488" cy="369.974" r="185.606" fx="235.147" fy="337.448"><stop offset="0.106526" stop-color="#00e6cd" stop-opacity="1"/><stop offset="0.423028" stop-color="#00e6cd" stop-opacity="1"/></radialGradient></defs>
        </g>
    </g>
</svg>
